{
    "asset" : {
        "generator" : "Khronos glTF Blender I/O v1.8.19",
        "version" : "2.0"
    },
    "scene" : 0,
    "scenes" : [
        {
            "name" : "Scene",
            "nodes" : [
                0,
                1,
                2
            ]
        }
    ],
    "nodes" : [
        {
            "mesh" : 0,
            "name" : "Donut"
        },
        {
            "mesh" : 1,
            "name" : "Icing"
        },
        {
            "mesh" : 2,
            "name" : "Plane",
            "translation" : [
                0.001975538209080696,
                -0.024238526821136475,
                -0.0919179916381836
            ]
        }
    ],
    "materials" : [
        {
            "doubleSided" : true,
            "name" : "Material.003",
            "pbrMetallicRoughness" : {
                "baseColorFactor" : [
                    0.8000000715255737,
                    0.3787059485912323,
                    0.27319425344467163,
                    1
                ],
                "metallicFactor" : 0,
                "roughnessFactor" : 0.5
            }
        },
        {
            "doubleSided" : true,
            "name" : "Material.001",
            "pbrMetallicRoughness" : {
                "baseColorFactor" : [
                    0.8000000715255737,
                    0.24926574528217316,
                    0.05934851989150047,
                    1
                ],
                "metallicFactor" : 0,
                "roughnessFactor" : 0.18333333730697632
            }
        },
        {
            "doubleSided" : true,
            "name" : "Material.002",
            "pbrMetallicRoughness" : {
                "baseColorFactor" : [
                    0.8000000715255737,
                    0.32346436381340027,
                    0.6381343007087708,
                    1
                ],
                "metallicFactor" : 0,
                "roughnessFactor" : 0.5
            }
        }
    ],
    "meshes" : [
        {
            "name" : "Torus",
            "primitives" : [
                {
                    "attributes" : {
                        "POSITION" : 0,
                        "NORMAL" : 1,
                        "TEXCOORD_0" : 2
                    },
                    "indices" : 3,
                    "material" : 0
                }
            ]
        },
        {
            "name" : "Torus.001",
            "primitives" : [
                {
                    "attributes" : {
                        "POSITION" : 4,
                        "NORMAL" : 5,
                        "TEXCOORD_0" : 6
                    },
                    "indices" : 7,
                    "material" : 1
                }
            ]
        },
        {
            "name" : "Plane",
            "primitives" : [
                {
                    "attributes" : {
                        "POSITION" : 8,
                        "NORMAL" : 9,
                        "TEXCOORD_0" : 10
                    },
                    "indices" : 11,
                    "material" : 2
                }
            ]
        }
    ],
    "accessors" : [
        {
            "bufferView" : 0,
            "componentType" : 5126,
            "count" : 779,
            "max" : [
                0.04914539307355881,
                0.019945021718740463,
                0.051176730543375015
            ],
            "min" : [
                -0.05021795257925987,
                -0.02008688449859619,
                -0.04924441874027252
            ],
            "type" : "VEC3"
        },
        {
            "bufferView" : 1,
            "componentType" : 5126,
            "count" : 779,
            "type" : "VEC3"
        },
        {
            "bufferView" : 2,
            "componentType" : 5126,
            "count" : 779,
            "type" : "VEC2"
        },
        {
            "bufferView" : 3,
            "componentType" : 5123,
            "count" : 4320,
            "type" : "SCALAR"
        },
        {
            "bufferView" : 4,
            "componentType" : 5126,
            "count" : 3653,
            "max" : [
                0.051642660051584244,
                0.020220207050442696,
                0.05089714750647545
            ],
            "min" : [
                -0.05050434172153473,
                -0.009261392056941986,
                -0.04911485314369202
            ],
            "type" : "VEC3"
        },
        {
            "bufferView" : 5,
            "componentType" : 5126,
            "count" : 3653,
            "type" : "VEC3"
        },
        {
            "bufferView" : 6,
            "componentType" : 5126,
            "count" : 3653,
            "type" : "VEC2"
        },
        {
            "bufferView" : 7,
            "componentType" : 5123,
            "count" : 19536,
            "type" : "SCALAR"
        },
        {
            "bufferView" : 8,
            "componentType" : 5126,
            "count" : 4,
            "max" : [
                1,
                0,
                1
            ],
            "min" : [
                -1,
                0,
                -1
            ],
            "type" : "VEC3"
        },
        {
            "bufferView" : 9,
            "componentType" : 5126,
            "count" : 4,
            "type" : "VEC3"
        },
        {
            "bufferView" : 10,
            "componentType" : 5126,
            "count" : 4,
            "type" : "VEC2"
        },
        {
            "bufferView" : 11,
            "componentType" : 5123,
            "count" : 6,
            "type" : "SCALAR"
        }
    ],
    "bufferViews" : [
        {
            "buffer" : 0,
            "byteLength" : 9348,
            "byteOffset" : 0
        },
        {
            "buffer" : 0,
            "byteLength" : 9348,
            "byteOffset" : 9348
        },
        {
            "buffer" : 0,
            "byteLength" : 6232,
            "byteOffset" : 18696
        },
        {
            "buffer" : 0,
            "byteLength" : 8640,
            "byteOffset" : 24928
        },
        {
            "buffer" : 0,
            "byteLength" : 43836,
            "byteOffset" : 33568
        },
        {
            "buffer" : 0,
            "byteLength" : 43836,
            "byteOffset" : 77404
        },
        {
            "buffer" : 0,
            "byteLength" : 29224,
            "byteOffset" : 121240
        },
        {
            "buffer" : 0,
            "byteLength" : 39072,
            "byteOffset" : 150464
        },
        {
            "buffer" : 0,
            "byteLength" : 48,
            "byteOffset" : 189536
        },
        {
            "buffer" : 0,
            "byteLength" : 48,
            "byteOffset" : 189584
        },
        {
            "buffer" : 0,
            "byteLength" : 32,
            "byteOffset" : 189632
        },
        {
            "buffer" : 0,
            "byteLength" : 12,
            "byteOffset" : 189664
        }
    ],
    "buffers" : [
        {
            "byteLength" : 189676,
            "uri" : "data:application/octet-stream;base64,"
        }
    ]
}
